<svg id="visual" viewBox="0 0 1920 500" width="1920" height="500" xmlns="http://www.w3.org/2000/svg" xmlns:xlink="http://www.w3.org/1999/xlink" version="1.1"><rect x="0" y="0" width="1920" height="500" fill="#14b8a6"></rect><path d="M0 307L274 312L549 320L823 302L1097 318L1371 320L1646 321L1920 310L1920 501L1646 501L1371 501L1097 501L823 501L549 501L274 501L0 501Z" fill="#0d9488"></path><path d="M0 348L274 334L549 394L823 331L1097 390L1371 359L1646 382L1920 397L1920 501L1646 501L1371 501L1097 501L823 501L549 501L274 501L0 501Z" fill="#57adb1"></path><path d="M0 420L274 410L549 370L823 374L1097 423L1371 394L1646 368L1920 371L1920 501L1646 501L1371 501L1097 501L823 501L549 501L274 501L0 501Z" fill="#91c6d2"></path><path d="M0 420L274 414L549 412L823 409L1097 416L1371 412L1646 412L1920 418L1920 501L1646 501L1371 501L1097 501L823 501L549 501L274 501L0 501Z" fill="#c8dfea"></path><path d="M0 461L274 466L549 478L823 464L1097 447L1371 463L1646 444L1920 452L1920 501L1646 501L1371 501L1097 501L823 501L549 501L274 501L0 501Z" fill="#f8fafc"></path></svg>